<svg width="24" height="24" viewBox="0 0 24 24" fill="none" xmlns="http://www.w3.org/2000/svg">
<path fill-rule="evenodd" clip-rule="evenodd" d="M4.52495 6.96499C3.87021 7.45664 3.48621 8.08342 3.48621 8.81818C3.48621 9.647 3.9699 10.3328 4.78004 10.8475C5.22082 12.2413 6.04967 13.3493 7.20852 14.0196V14.4568C3.45953 14.9948 1.03349 16.7235 0.0878727 19.6313C-0.223376 20.5883 0.318485 21.6106 1.29814 21.9147C1.48038 21.9712 1.67045 22 1.86166 22H18.1388C19.1667 22 20 21.186 20 20.1818C20 19.995 19.9705 19.8093 19.9126 19.6313C18.967 16.7235 16.541 14.9948 12.792 14.4568V14.0196C13.9508 13.3493 14.7797 12.2413 15.2205 10.8475C16.0306 10.3328 16.5143 9.647 16.5143 8.81818C16.5143 8.08342 16.1303 7.45664 15.4756 6.96499C15.0003 3.98742 13.0005 2 10.0003 2C6.99997 2 5.00017 3.98742 4.52495 6.96499ZM8.53307 12.6157C7.55351 12.2047 6.86045 11.3201 6.53712 10.0722C6.47399 9.8286 6.3077 9.6223 6.0794 9.50438C5.61028 9.26208 5.42635 9.0411 5.42635 8.88889C5.42635 8.75518 5.56784 8.56739 5.94308 8.3482C6.1891 8.20449 6.35143 7.95689 6.3815 7.67949C6.63089 5.37929 7.93228 4 10 4C12.0677 4 13.3691 5.37929 13.6185 7.67949C13.6486 7.95689 13.8109 8.20449 14.0569 8.3482C14.4322 8.56739 14.5737 8.75518 14.5737 8.88889C14.5737 9.0411 14.3897 9.26208 13.9206 9.50438C13.6923 9.6223 13.526 9.8286 13.4629 10.0722C13.1395 11.3201 12.4465 12.2047 11.4669 12.6156C11.1318 12.7562 10.9147 13.077 10.9147 13.4317V15.1905C10.9147 15.649 11.2736 16.0323 11.7434 16.0754C15.2259 16.3952 17.2477 17.6987 18 20L2 20C2.75235 17.6987 4.77413 16.3952 8.2566 16.0754C8.72636 16.0323 9.08527 15.649 9.08527 15.1905V13.4317C9.08527 13.077 8.86823 12.7562 8.53307 12.6157Z" fill="#2D2D2F"/>
<path d="M19 11V11.5C19.2761 11.5 19.5 11.2761 19.5 11H19ZM19 12H19.5C19.5 11.7239 19.2761 11.5 19 11.5V12ZM20 12V11.5C19.7239 11.5 19.5 11.7239 19.5 12H20ZM20 11H19.5C19.5 11.2761 19.7239 11.5 20 11.5V11ZM19.5 8H20.5C20.5 7.44772 20.0523 7 19.5 7V8ZM19.5 8V7C18.9477 7 18.5 7.44772 18.5 8H19.5ZM19.5 11V8H18.5V11H19.5ZM16 11.5H19V10.5H16V11.5ZM16 11.5V10.5C15.4477 10.5 15 10.9477 15 11.5H16ZM16 11.5H15C15 12.0523 15.4477 12.5 16 12.5V11.5ZM19 11.5H16V12.5H19V11.5ZM19.5 15V12H18.5V15H19.5ZM19.5 15H18.5C18.5 15.5523 18.9477 16 19.5 16V15ZM19.5 15V16C20.0523 16 20.5 15.5523 20.5 15H19.5ZM19.5 12V15H20.5V12H19.5ZM23 11.5H20V12.5H23V11.5ZM23 11.5V12.5C23.5523 12.5 24 12.0523 24 11.5H23ZM23 11.5H24C24 10.9477 23.5523 10.5 23 10.5V11.5ZM20 11.5H23V10.5H20V11.5ZM19.5 8V11H20.5V8H19.5Z" fill="#2D2D2F"/>
</svg>
