<svg width="22" height="22" viewBox="0 0 22 22" fill="none" xmlns="http://www.w3.org/2000/svg">
<path fill-rule="evenodd" clip-rule="evenodd" d="M4.0002 7.5C4.0002 6.69176 4.41284 6.00231 5.11643 5.46149C5.6271 2.18617 7.77608 0 11.0002 0C14.2243 0 16.3733 2.18617 16.884 5.46149C17.5876 6.00231 18.0002 6.69176 18.0002 7.5C18.0002 8.4117 17.4804 9.16605 16.6098 9.73228C16.1362 11.2655 15.2455 12.4842 14.0002 13.2216V13.7025C18.0289 14.2943 20.6359 16.1959 21.6521 19.3944C21.7143 19.5903 21.7459 19.7945 21.7459 20C21.7459 21.1046 20.8505 22 19.7459 22H2.25445C2.04897 22 1.84472 21.9683 1.64889 21.9061C0.596151 21.5717 0.0138663 20.4471 0.348334 19.3944C1.3645 16.1959 3.97153 14.2943 8.0002 13.7025V13.2216C6.7549 12.4842 5.86421 11.2655 5.39054 9.73228C4.51996 9.16605 4.0002 8.4117 4.0002 7.5Z" fill="#D0D0D0"/>
</svg>
