<svg width="24" height="24" viewBox="0 0 24 24" fill="none" xmlns="http://www.w3.org/2000/svg">
<path fill-rule="evenodd" clip-rule="evenodd" d="M4.05132 21.6838C3.76105 22.5546 4.69916 23.3237 5.49614 22.8682L10.6284 19.9355C11.0815 19.9784 11.5392 20 12 20C18.5881 20 24 15.5721 24 10C24 4.4279 18.5881 0 12 0C5.41188 0 0 4.4279 0 10C0 13.3643 1.99589 16.4097 5.19799 18.2438L4.05132 21.6838ZM17 10C17 10.5523 16.5523 11 16 11C15.4477 11 15 10.5523 15 10C15 9.44771 15.4477 9 16 9C16.5523 9 17 9.44771 17 10ZM12 11C12.5523 11 13 10.5523 13 10C13 9.44771 12.5523 9 12 9C11.4477 9 11 9.44771 11 10C11 10.5523 11.4477 11 12 11ZM9 10C9 10.5523 8.55229 11 8 11C7.44772 11 7 10.5523 7 10C7 9.44771 7.44772 9 8 9C8.55229 9 9 9.44771 9 10Z" fill="#D0D0D0"/>
</svg>
