<svg width="14" height="14" viewBox="0 0 14 14" fill="none" xmlns="http://www.w3.org/2000/svg">
<path fill-rule="evenodd" clip-rule="evenodd" d="M0 7C0 3.13438 3.13438 0 7 0C10.8656 0 14 3.13438 14 7C14 10.8656 10.8656 14 7 14C3.13438 14 0 10.8656 0 7ZM3.5 5.57812C3.5 5.99234 3.83579 6.32812 4.25 6.32812C4.66421 6.32812 5 5.99234 5 5.57812C5 5.16391 4.66421 4.82812 4.25 4.82812C3.83579 4.82812 3.5 5.16391 3.5 5.57812ZM9 5.57812C9 5.99234 9.33579 6.32812 9.75 6.32812C10.1642 6.32812 10.5 5.99234 10.5 5.57812C10.5 5.16391 10.1642 4.82812 9.75 4.82812C9.33579 4.82812 9 5.16391 9 5.57812ZM11.1094 11.1094C10.575 11.6438 9.95312 12.0625 9.26094 12.3562C8.54688 12.6594 7.78594 12.8125 7 12.8125C6.21406 12.8125 5.45312 12.6594 4.7375 12.3562C4.04636 12.0644 3.41857 11.6409 2.88906 11.1094C2.35469 10.575 1.93594 9.95312 1.64219 9.26094C1.34063 8.54688 1.1875 7.78594 1.1875 7C1.1875 6.21406 1.34063 5.45312 1.64375 4.7375C1.93564 4.04636 2.35912 3.41857 2.89062 2.88906C3.425 2.35469 4.04688 1.93594 4.73906 1.64219C5.45312 1.34063 6.21406 1.1875 7 1.1875C7.78594 1.1875 8.54688 1.34063 9.2625 1.64375C9.95364 1.93564 10.5814 2.35912 11.1109 2.89062C11.6453 3.425 12.0641 4.04688 12.3578 4.73906C12.6594 5.45312 12.8125 6.21406 12.8125 7C12.8125 7.78594 12.6594 8.54688 12.3562 9.2625C12.0647 9.95337 11.6412 10.5807 11.1094 11.1094ZM8.62344 7.32812H9.375C9.40926 7.32808 9.44204 7.34211 9.46567 7.36692C9.4893 7.39173 9.50171 7.42515 9.5 7.45937C9.43125 8.77656 8.33594 9.82812 7 9.82812C5.66406 9.82812 4.56875 8.77656 4.5 7.45937C4.49829 7.42515 4.5107 7.39173 4.53433 7.36692C4.55796 7.34211 4.59074 7.32808 4.625 7.32812H5.37656C5.44219 7.32812 5.49844 7.37813 5.50313 7.44375C5.56094 8.21719 6.21094 8.82812 7 8.82812C7.78906 8.82812 8.4375 8.21719 8.49687 7.44375C8.50156 7.37813 8.55781 7.32812 8.62344 7.32812Z" fill="black"/>
</svg>
