<svg width="24" height="24" viewBox="0 0 24 24" fill="none" xmlns="http://www.w3.org/2000/svg">
<g clip-path="url(#clip0_0_94)">
<path fill-rule="evenodd" clip-rule="evenodd" d="M13 16V3.41421L17.2929 7.70711C17.6834 8.09763 18.3166 8.09763 18.7071 7.70711C19.0976 7.31658 19.0976 6.68342 18.7071 6.29289L12.7071 0.292893C12.3166 -0.0976311 11.6834 -0.0976311 11.2929 0.292893L5.29289 6.29289C4.90237 6.68342 4.90237 7.31658 5.29289 7.70711C5.68342 8.09763 6.31658 8.09763 6.70711 7.70711L11 3.41421V16C11 16.5523 11.4477 17 12 17C12.5523 17 13 16.5523 13 16ZM20 21C20.5523 21 21 20.5523 21 20V12C21 11.4477 21.4477 11 22 11C22.5523 11 23 11.4477 23 12V20C23 21.6569 21.6569 23 20 23H4C2.34315 23 1 21.6569 1 20V12C1 11.4477 1.44772 11 2 11C2.55228 11 3 11.4477 3 12V20C3 20.5523 3.44772 21 4 21H20Z" fill="white"/>
</g>
<defs>
<clipPath id="clip0_0_94">
<rect width="24" height="24" fill="white"/>
</clipPath>
</defs>
</svg>
